<svg xmlns="http://www.w3.org/2000/svg" viewBox="0 0 166.5 38.7"><path d="M10.4 22.6c-1.1 0-2.3-.1-3.6-.4-1.3-.3-2.4-.8-3.5-1.7-.6-.5-1.1-1.1-1.5-1.8-.4-.7-.8-1.5-1-2.3-.3-.8-.5-1.6-.6-2.5-.1-.8-.2-1.6-.2-2.5v-1c0-.3 0-.6.1-1 .3-3.1 1.4-5.6 3.5-7.3.6-.5 1.4-1 2.3-1.5C6.8.2 7.7 0 8.5 0h17.9c.4 0 .5.2.5.5v5.9c0 .4-.2.5-.5.5H10.8c-.5 0-1 .2-1.4.7-.4.5-.7 1-.9 1.4-.1.3-.3.7-.3 1 0 .4-.1.7-.1 1.1 0 .6 0 1.2.1 1.8.1.6.3 1.2.8 1.6.4.4.9.6 1.6.7.7.1 1.5.1 2.3.1h6c1.1 0 2.3.2 3.5.5 1.2.3 2.4.9 3.4 1.8.6.5 1.1 1.1 1.5 1.8.4.7.8 1.5 1 2.3s.5 1.7.6 2.6c.1.9.2 1.8.2 2.6V28c0 .3 0 .6-.1.9-.3 3.3-1.4 5.8-3.5 7.6-.6.5-1.4 1-2.2 1.5-.9.5-1.7.7-2.5.7H1.2c-.4 0-.5-.2-.5-.5v-5.9c0-.4.2-.5.5-.5h17.4c.5 0 1-.3 1.4-.8.4-.5.7-1 .9-1.4.2-.4.3-.8.3-1.1 0-.4.1-.7.1-1.1 0-.6 0-1.2-.1-1.8-.1-.6-.3-1.2-.8-1.7-.4-.4-.9-.7-1.5-.8-.7-.2-1.4-.2-2.3-.2h-6.2z" fill="#fed136"/><path d="M38.6 6.2c0-1.2.2-2.2.6-3 .4-.8 1-1.4 1.7-1.9s1.5-.8 2.5-1c1-.2 1.9-.3 2.9-.3 1.5 0 2.8.1 3.8.3 1 .2 1.8.6 2.4 1.2.6.6 1.1 1.6 1.5 2.8.4 1.3.7 3 1.1 5.1L58 27.3c0 .1.1.4.1.7.1.3.1.6.2 1l.3.9c.1.3.2.4.2.4.1 0 .2-.1.3-.4.1-.3.2-.5.3-.9.1-.3.1-.6.2-.9.1-.3.1-.5.1-.6l2.8-18.3c.3-2.1.7-3.8 1.1-5 .3-1.2.8-2.1 1.4-2.7.6-.6 1.4-1 2.5-1.2 1-.2 2.3-.3 3.9-.3 2.3 0 4.1.5 5.6 1.3 1.4.9 2.2 2.4 2.2 4.6v32.2c0 .4-.2.5-.5.5h-6.8c-.4 0-.5-.2-.5-.5V8.7c0-.1 0-.2-.1-.5 0-.2-.1-.4-.3-.4-.2 0-.3.1-.4.2s-.2.3-.2.4c0 .1-.1.2-.1.5-.2.4-.3.6-.3.9-.1.3-.1.6-.2.9-.1.3-.1.5-.1.6-.2.9-.4 1.8-.6 2.8s-.5 2.3-.8 3.9c-.4 1.6-.8 3.7-1.3 6.3-.5 2.5-1.2 5.8-2.1 9.7-.1.6-.3 1.1-.5 1.7-.3.5-.6 1-1.1 1.5s-1.1.8-1.8 1.1c-.8.3-1.7.4-2.9.4-1 0-1.9-.1-2.6-.4-.7-.3-1.2-.6-1.6-.9-.4-.4-.8-.8-1-1.3s-.4-.9-.5-1.4L47.5 9.1c0-.1-.1-.3-.2-.6s-.2-.5-.4-.6h-.3c-.1 0-.2.1-.2.4v29.9c0 .4-.2.5-.5.5h-6.8c-.4 0-.5-.2-.5-.5v-32z" fill="#fcc21d"/><path d="M89.5 0h6.8c.4 0 .5.2.5.5v37.6c0 .4-.2.5-.5.5h-6.8c-.4 0-.5-.2-.5-.5V.5c-.1-.3.1-.5.5-.5z" fill="#ffb600"/><path d="M131.8 32.2v5.9c0 .4-.2.5-.5.5H115.6c-.3 0-.5 0-.6-.1-3-.3-5.1-1.1-6.4-2.6-1.3-1.5-1.9-3.8-1.9-6.8V.5c0-.4.2-.5.5-.5h6.8c.4 0 .5.2.5.5v29.4c0 1.2.7 1.8 2.1 1.8h14.6c.4 0 .6.2.6.5z" fill="#ff9d00"/><path d="M139.7 8.3c0-2.4.7-4.4 2-6C143 .8 145 0 147.5 0h18.3c.5 0 .7.2.7.5v5.9c0 .4-.2.5-.5.5h-17.9c-.4 0-.5.2-.5.6V15c0 .4.2.5.5.5h16.6c.4 0 .5.2.5.5v6.2c0 .4-.2.5-.5.5h-16.6c-.4 0-.5.2-.5.5V31c0 .4.2.5.5.5H166c.4 0 .5.2.5.5v5.9c0 .4-.2.5-.5.5h-21c-.6 0-1.3-.2-1.9-.5-.6-.3-1.2-.8-1.7-1.3s-.9-1.1-1.2-1.8c-.3-.7-.5-1.3-.5-2V8.3z" fill="#ff9700"/></svg>
