<?xml version="1.0" encoding="utf-8"?>
<!-- Generator: Adobe Illustrator 23.0.3, SVG Export Plug-In . SVG Version: 6.00 Build 0)  -->
<svg version="1.1" id="Layer_1" xmlns="http://www.w3.org/2000/svg" xmlns:xlink="http://www.w3.org/1999/xlink" x="0px" y="0px"
	 viewBox="0 0 1400 500" style="enable-background:new 0 0 1400 500;" xml:space="preserve">
<style type="text/css">
	.st0{fill:#FFFFFF;}
	.st1{enable-background:new    ;}
	.st2{fill:#001944;}
	.st3{fill:#2261FF;}
	.st4{font-family:'MyriadPro-Regular';}
	.st5{font-size:9px;}
	.st6{fill:none;stroke:#2261FF;stroke-miterlimit:10;stroke-dasharray:11,11;}
	.st7{fill:#7C4BE8;}
	.st8{fill:#2AE888;}
	.st9{fill:#FF900B;}
	.st10{fill:none;}
	.st11{fill:#AF4F00;}
</style>
<rect class="st0" width="1400" height="500"/>
<title>mekanisme_pemeriksaan</title>
<g class="st1">
	<path class="st2" d="M373.9,251.3c-0.1-2.9-0.2-6.4-0.2-10h-0.1c-0.8,3.1-1.8,6.6-2.7,9.4l-3,9.5h-4.3l-2.6-9.4
		c-0.8-2.9-1.6-6.3-2.2-9.5h-0.1c-0.1,3.3-0.3,7-0.4,10l-0.4,9.2h-5.1l1.5-24.3h7.3l2.4,8.1c0.8,2.8,1.5,5.8,2.1,8.7h0.1
		c0.7-2.8,1.5-6,2.3-8.7l2.6-8.1h7.2l1.3,24.3h-5.4L373.9,251.3z"/>
	<path class="st2" d="M398.3,250.3h-8.9v5.8h10v4.5h-15.5v-24.3h15v4.5h-9.5v5h8.9V250.3z"/>
	<path class="st2" d="M403.1,236.3h5.4V247h0.1c0.5-0.9,1.1-1.8,1.7-2.7l5.5-8.1h6.7l-8,10.3l8.5,13.9h-6.4l-5.9-10.5l-2.1,2.6v7.9
		h-5.4V236.3z"/>
	<path class="st2" d="M431.3,254.3l-1.7,6.2h-5.7l7.4-24.3h7.2l7.5,24.3h-5.9l-1.9-6.2H431.3z M437.5,250.2l-1.5-5.1
		c-0.4-1.4-0.9-3.2-1.2-4.7h-0.1c-0.4,1.4-0.7,3.3-1.1,4.7l-1.4,5.1H437.5z"/>
	<path class="st2" d="M449.3,260.6v-24.3h6.4l5,8.9c1.4,2.6,2.9,5.6,4,8.3h0.1c-0.4-3.2-0.5-6.5-0.5-10.2v-7.1h5v24.3h-5.8l-5.2-9.4
		c-1.4-2.6-3-5.7-4.2-8.6l-0.1,0c0.1,3.2,0.2,6.6,0.2,10.6v7.3H449.3z"/>
	<path class="st2" d="M479.6,236.3v24.3h-5.5v-24.3H479.6z"/>
	<path class="st2" d="M484.6,254.9c1.5,0.8,3.7,1.5,6.1,1.5c2.5,0,3.9-1,3.9-2.6c0-1.5-1.2-2.4-4.1-3.4c-4-1.4-6.7-3.6-6.7-7.2
		c0-4.1,3.5-7.3,9.2-7.3c2.7,0,4.8,0.6,6.2,1.2l-1.2,4.4c-1-0.5-2.7-1.2-5.1-1.2c-2.4,0-3.5,1.1-3.5,2.3c0,1.5,1.4,2.2,4.5,3.4
		c4.3,1.6,6.3,3.8,6.3,7.2c0,4.1-3.1,7.6-9.8,7.6c-2.8,0-5.5-0.8-6.9-1.5L484.6,254.9z"/>
	<path class="st2" d="M524.3,251.3c-0.1-2.9-0.2-6.4-0.2-10H524c-0.8,3.1-1.8,6.6-2.7,9.4l-3,9.5h-4.3l-2.6-9.4
		c-0.8-2.9-1.6-6.3-2.2-9.5h-0.1c-0.1,3.3-0.3,7-0.4,10l-0.4,9.2h-5.1l1.5-24.3h7.3l2.4,8.1c0.8,2.8,1.5,5.8,2.1,8.7h0.1
		c0.7-2.8,1.5-6,2.3-8.7l2.6-8.1h7.2l1.3,24.3h-5.4L524.3,251.3z"/>
	<path class="st2" d="M548.7,250.3h-8.9v5.8h10v4.5h-15.5v-24.3h15v4.5h-9.5v5h8.9V250.3z"/>
	<path class="st2" d="M560.8,236.6c1.7-0.3,4.1-0.5,7.4-0.5c3.4,0,5.8,0.6,7.4,1.9c1.5,1.2,2.6,3.2,2.6,5.6s-0.8,4.4-2.2,5.8
		c-1.9,1.8-4.6,2.6-7.9,2.6c-0.7,0-1.4,0-1.9-0.1v8.7h-5.4V236.6z M566.2,247.6c0.5,0.1,1,0.1,1.8,0.1c2.9,0,4.7-1.5,4.7-4
		c0-2.2-1.5-3.6-4.3-3.6c-1.1,0-1.9,0.1-2.3,0.2V247.6z"/>
	<path class="st2" d="M596.1,250.3h-8.9v5.8h10v4.5h-15.5v-24.3h15v4.5h-9.5v5h8.9V250.3z"/>
	<path class="st2" d="M621.4,251.3c-0.1-2.9-0.2-6.4-0.2-10h-0.1c-0.8,3.1-1.8,6.6-2.7,9.4l-3,9.5h-4.3l-2.6-9.4
		c-0.8-2.9-1.6-6.3-2.2-9.5h-0.1c-0.1,3.3-0.3,7-0.4,10l-0.4,9.2h-5.1l1.5-24.3h7.3l2.4,8.1c0.8,2.8,1.5,5.8,2.1,8.7h0.1
		c0.7-2.8,1.5-6,2.3-8.7l2.6-8.1h7.2l1.3,24.3h-5.4L621.4,251.3z"/>
	<path class="st2" d="M645.8,250.3h-8.9v5.8h10v4.5h-15.5v-24.3h15v4.5h-9.5v5h8.9V250.3z"/>
	<path class="st2" d="M650.6,236.6c1.8-0.3,4.4-0.5,7.3-0.5c3.6,0,6.1,0.5,7.8,1.9c1.4,1.2,2.2,2.8,2.2,5.1c0,3.1-2.2,5.2-4.3,6v0.1
		c1.7,0.7,2.6,2.3,3.2,4.5c0.8,2.7,1.5,5.9,2,6.8h-5.6c-0.4-0.7-1-2.7-1.7-5.7c-0.6-3-1.7-3.9-3.9-3.9H656v9.5h-5.4V236.6z
		 M656,247.1h2.2c2.7,0,4.4-1.4,4.4-3.5c0-2.2-1.5-3.3-4-3.4c-1.3,0-2.1,0.1-2.5,0.2V247.1z"/>
	<path class="st2" d="M677.4,236.3v24.3h-5.5v-24.3H677.4z"/>
	<path class="st2" d="M682.2,236.3h5.4V247h0.1c0.5-0.9,1.1-1.8,1.7-2.7l5.5-8.1h6.7l-8,10.3l8.5,13.9h-6.4l-5.9-10.5l-2.1,2.6v7.9
		h-5.4V236.3z"/>
	<path class="st2" d="M704.5,254.9c1.5,0.8,3.7,1.5,6.1,1.5c2.5,0,3.9-1,3.9-2.6c0-1.5-1.2-2.4-4.1-3.4c-4-1.4-6.7-3.6-6.7-7.2
		c0-4.1,3.5-7.3,9.2-7.3c2.7,0,4.8,0.6,6.2,1.2l-1.2,4.4c-1-0.5-2.7-1.2-5.1-1.2c-2.4,0-3.5,1.1-3.5,2.3c0,1.5,1.4,2.2,4.5,3.4
		c4.3,1.6,6.3,3.8,6.3,7.2c0,4.1-3.1,7.6-9.8,7.6c-2.8,0-5.5-0.8-6.9-1.5L704.5,254.9z"/>
	<path class="st2" d="M729.4,254.3l-1.7,6.2H722l7.4-24.3h7.2l7.5,24.3h-5.9l-1.9-6.2H729.4z M735.5,250.2l-1.5-5.1
		c-0.4-1.4-0.9-3.2-1.2-4.7h-0.1c-0.4,1.4-0.7,3.3-1.1,4.7l-1.4,5.1H735.5z"/>
	<path class="st2" d="M753,254.3l-1.7,6.2h-5.7l7.4-24.3h7.2l7.5,24.3h-5.9l-1.9-6.2H753z M759.2,250.2l-1.5-5.1
		c-0.4-1.4-0.9-3.2-1.2-4.7h-0.1c-0.4,1.4-0.7,3.3-1.1,4.7l-1.4,5.1H759.2z"/>
	<path class="st2" d="M771,260.6v-24.3h6.4l5,8.9c1.4,2.6,2.9,5.6,4,8.3h0.1c-0.4-3.2-0.5-6.5-0.5-10.2v-7.1h5v24.3h-5.8l-5.2-9.4
		c-1.4-2.6-3-5.7-4.2-8.6l-0.1,0c0.1,3.2,0.2,6.6,0.2,10.6v7.3H771z"/>
	<path class="st2" d="M803.1,236.6c1.7-0.3,4.1-0.5,7.4-0.5c3.4,0,5.8,0.6,7.4,1.9c1.5,1.2,2.6,3.2,2.6,5.6s-0.8,4.4-2.2,5.8
		c-1.9,1.8-4.6,2.6-7.9,2.6c-0.7,0-1.4,0-1.9-0.1v8.7h-5.4V236.6z M808.5,247.6c0.5,0.1,1,0.1,1.8,0.1c2.9,0,4.7-1.5,4.7-4
		c0-2.2-1.5-3.6-4.3-3.6c-1.1,0-1.9,0.1-2.3,0.2V247.6z"/>
	<path class="st2" d="M824,236.6c1.8-0.3,4.4-0.5,7.3-0.5c3.6,0,6.1,0.5,7.8,1.9c1.4,1.2,2.2,2.8,2.2,5.1c0,3.1-2.2,5.2-4.3,6v0.1
		c1.7,0.7,2.6,2.3,3.2,4.5c0.8,2.7,1.5,5.9,2,6.8h-5.6c-0.4-0.7-1-2.7-1.7-5.7c-0.6-3-1.7-3.9-3.9-3.9h-1.7v9.5H824V236.6z
		 M829.4,247.1h2.2c2.7,0,4.4-1.4,4.4-3.5c0-2.2-1.5-3.3-4-3.4c-1.3,0-2.1,0.1-2.5,0.2V247.1z"/>
	<path class="st2" d="M867.4,248.2c0,8-4.8,12.8-11.9,12.8c-7.2,0-11.4-5.4-11.4-12.3c0-7.3,4.6-12.7,11.8-12.7
		C863.3,235.9,867.4,241.5,867.4,248.2z M849.9,248.5c0,4.8,2.2,8.1,5.9,8.1c3.7,0,5.8-3.5,5.8-8.2c0-4.4-2.1-8.1-5.9-8.1
		C852,240.3,849.9,243.8,849.9,248.5z"/>
	<path class="st2" d="M888.8,259.9c-1,0.5-3.3,1.1-6.2,1.1c-8.4,0-12.7-5.3-12.7-12.2c0-8.3,5.9-12.9,13.2-12.9c2.8,0,5,0.6,6,1.1
		l-1.1,4.4c-1.1-0.5-2.7-0.9-4.6-0.9c-4.4,0-7.7,2.6-7.7,8c0,4.9,2.9,7.9,7.8,7.9c1.7,0,3.5-0.4,4.6-0.8L888.8,259.9z"/>
	<path class="st2" d="M906.9,250.3h-8.9v5.8h10v4.5h-15.5v-24.3h15v4.5h-9.5v5h8.9V250.3z"/>
	<path class="st2" d="M911.8,254.9c1.5,0.8,3.7,1.5,6.1,1.5c2.5,0,3.9-1,3.9-2.6c0-1.5-1.2-2.4-4.1-3.4c-4-1.4-6.7-3.6-6.7-7.2
		c0-4.1,3.5-7.3,9.2-7.3c2.7,0,4.8,0.6,6.2,1.2l-1.2,4.4c-1-0.5-2.7-1.2-5.1-1.2c-2.4,0-3.5,1.1-3.5,2.3c0,1.5,1.4,2.2,4.5,3.4
		c4.3,1.6,6.3,3.8,6.3,7.2c0,4.1-3.1,7.6-9.8,7.6c-2.8,0-5.5-0.8-6.9-1.5L911.8,254.9z"/>
	<path class="st2" d="M931.3,254.9c1.5,0.8,3.7,1.5,6.1,1.5c2.5,0,3.9-1,3.9-2.6c0-1.5-1.2-2.4-4.1-3.4c-4-1.4-6.7-3.6-6.7-7.2
		c0-4.1,3.5-7.3,9.2-7.3c2.7,0,4.8,0.6,6.2,1.2l-1.2,4.4c-1-0.5-2.7-1.2-5.1-1.2c-2.4,0-3.5,1.1-3.5,2.3c0,1.5,1.4,2.2,4.5,3.4
		c4.3,1.6,6.3,3.8,6.3,7.2c0,4.1-3.1,7.6-9.8,7.6c-2.8,0-5.5-0.8-6.9-1.5L931.3,254.9z"/>
	<path class="st2" d="M957.8,236.3h14.8v4.5h-9.3v5.5h8.7v4.5h-8.7v9.8h-5.5V236.3z"/>
	<path class="st2" d="M976.8,236.3h5.5V256h9.6v4.6h-15.2V236.3z"/>
	<path class="st2" d="M1016,248.2c0,8-4.8,12.8-11.9,12.8c-7.2,0-11.4-5.4-11.4-12.3c0-7.3,4.6-12.7,11.8-12.7
		C1012,235.9,1016,241.5,1016,248.2z M998.5,248.5c0,4.8,2.2,8.1,5.9,8.1c3.7,0,5.8-3.5,5.8-8.2c0-4.4-2.1-8.1-5.9-8.1
		C1000.6,240.3,998.5,243.8,998.5,248.5z"/>
	<path class="st2" d="M1023.3,260.6l-5.8-24.3h5.9l1.8,10c0.5,2.9,1,6,1.4,8.5h0.1c0.4-2.6,1-5.5,1.6-8.5l2.1-9.9h5.8l1.9,10.2
		c0.5,2.8,0.9,5.4,1.3,8.1h0.1c0.4-2.7,0.9-5.5,1.4-8.4l2-9.9h5.6l-6.3,24.3h-5.9l-2.1-10.4c-0.5-2.4-0.9-4.7-1.2-7.5h-0.1
		c-0.4,2.7-0.8,5-1.4,7.5l-2.3,10.4H1023.3z"/>
</g>
<path class="st3" d="M144.6,35.9h-12.1c-1.6-4.5-6.5-6.9-11-5.3c-2.5,0.9-4.4,2.8-5.3,5.3h-12.1c-3.2,0-5.8,2.6-5.8,5.8v40.4
	c0,3.2,2.6,5.8,5.8,5.8h40.4c3.2,0,5.8-2.6,5.8-5.8V41.7C150.4,38.5,147.8,35.9,144.6,35.9z M124.4,35.9c1.6,0,2.9,1.3,2.9,2.9
	c0,1.6-1.3,2.9-2.9,2.9s-2.9-1.3-2.9-2.9l0,0C121.5,37.2,122.8,35.9,124.4,35.9z M130.2,76.3H110v-5.8h20.2V76.3z M138.8,64.8h-28.9
	V59h28.9V64.8z M138.8,53.2h-28.9v-5.8h28.9V53.2z"/>
<text transform="matrix(1 0 0 1 20 105.42)" class="st4 st5">L</text>
<text transform="matrix(1 0 0 1 24.12 105.42)" class="st4 st5">o</text>
<text transform="matrix(1 0 0 1 29.06 105.42)" class="st4 st5">r</text>
<text transform="matrix(1 0 0 1 31.92 105.42)" class="st4 st5">em ipsum dolor sit ame</text>
<text transform="matrix(1 0 0 1 119.84 105.42)" class="st4 st5">t</text>
<text transform="matrix(1 0 0 1 122.8 105.42)" class="st4 st5">, </text>
<text transform="matrix(1 0 0 1 126.57 105.42)" class="st4 st5">c</text>
<text transform="matrix(1 0 0 1 130.55 105.42)" class="st4 st5">onse</text>
<text transform="matrix(1 0 0 1 148.55 105.42)" class="st4 st5">c</text>
<text transform="matrix(1 0 0 1 152.7 105.42)" class="st4 st5">t</text>
<text transform="matrix(1 0 0 1 155.63 105.42)" class="st4 st5">etur adipiscing eli</text>
<text transform="matrix(1 0 0 1 222.05 105.42)" class="st4 st5">t</text>
<text transform="matrix(1 0 0 1 225 105.42)" class="st4 st5">, </text>
<text transform="matrix(1 0 0 1 22.84 116.22)" class="st4 st5">sed do eiusmod </text>
<text transform="matrix(1 0 0 1 84.39 116.22)" class="st4 st5">t</text>
<text transform="matrix(1 0 0 1 87.31 116.22)" class="st4 st5">empor incididu</text>
<text transform="matrix(1 0 0 1 144.7 116.22)" class="st4 st5">n</text>
<text transform="matrix(1 0 0 1 149.66 116.22)" class="st4 st5">t ut labo</text>
<text transform="matrix(1 0 0 1 180.91 116.22)" class="st4 st5">r</text>
<text transform="matrix(1 0 0 1 183.77 116.22)" class="st4 st5">e et dolo</text>
<text transform="matrix(1 0 0 1 216.66 116.22)" class="st4 st5">r</text>
<text transform="matrix(1 0 0 1 219.51 116.22)" class="st4 st5">e </text>
<text transform="matrix(1 0 0 1 97.96 127.02)" class="st4 st5">ma</text>
<text transform="matrix(1 0 0 1 109.8 127.02)" class="st4 st5">g</text>
<text transform="matrix(1 0 0 1 114.78 127.02)" class="st4 st5">na aliqua.</text>
<polygon class="st3" points="360,62 349.6,56 349.6,68 "/>
<line class="st6" x1="349.6" y1="62" x2="214.5" y2="62"/>
<polygon class="st3" points="218.5,423 228.9,417 228.9,429 "/>
<line class="st6" x1="228.9" y1="423" x2="364" y2="423"/>
<polygon class="st3" points="714,62 703.6,56 703.6,68 "/>
<line class="st6" x1="703.6" y1="62" x2="568.5" y2="62"/>
<polygon class="st3" points="568.5,423 578.9,417 578.9,429 "/>
<line class="st6" x1="578.9" y1="423" x2="714" y2="423"/>
<g>
	<polygon class="st3" points="1275.6,332.1 1281.6,321.7 1269.6,321.7 	"/>
	<line class="st6" x1="1275.6" y1="321.7" x2="1275.6" y2="186.7"/>
</g>
<polygon class="st3" points="1000.5,429 1010.9,423 1010.9,435 "/>
<line class="st6" x1="1010.9" y1="429" x2="1146" y2="429"/>
<text transform="matrix(1 0 0 1 362.62 105.42)" class="st4 st5">L</text>
<text transform="matrix(1 0 0 1 366.74 105.42)" class="st4 st5">o</text>
<text transform="matrix(1 0 0 1 371.68 105.42)" class="st4 st5">r</text>
<text transform="matrix(1 0 0 1 374.54 105.42)" class="st4 st5">em ipsum dolor sit ame</text>
<text transform="matrix(1 0 0 1 462.46 105.42)" class="st4 st5">t</text>
<text transform="matrix(1 0 0 1 465.42 105.42)" class="st4 st5">, </text>
<text transform="matrix(1 0 0 1 469.19 105.42)" class="st4 st5">c</text>
<text transform="matrix(1 0 0 1 473.17 105.42)" class="st4 st5">onse</text>
<text transform="matrix(1 0 0 1 491.17 105.42)" class="st4 st5">c</text>
<text transform="matrix(1 0 0 1 495.32 105.42)" class="st4 st5">t</text>
<text transform="matrix(1 0 0 1 498.25 105.42)" class="st4 st5">etur adipiscing eli</text>
<text transform="matrix(1 0 0 1 564.67 105.42)" class="st4 st5">t</text>
<text transform="matrix(1 0 0 1 567.62 105.42)" class="st4 st5">, </text>
<text transform="matrix(1 0 0 1 378.67 116.22)" class="st4 st5">sed do eiusmod </text>
<text transform="matrix(1 0 0 1 440.22 116.22)" class="st4 st5">t</text>
<text transform="matrix(1 0 0 1 443.15 116.22)" class="st4 st5">empor incididu</text>
<text transform="matrix(1 0 0 1 500.53 116.22)" class="st4 st5">n</text>
<text transform="matrix(1 0 0 1 505.49 116.22)" class="st4 st5">t ut labo</text>
<text transform="matrix(1 0 0 1 536.75 116.22)" class="st4 st5">r</text>
<text transform="matrix(1 0 0 1 539.6 116.22)" class="st4 st5">e e</text>
<text transform="matrix(1 0 0 1 550.52 116.22)" class="st4 st5">t</text>
<text transform="matrix(1 0 0 1 553.48 116.22)" class="st4 st5">.</text>
<path class="st7" d="M467,39.2c3.8,0,6.8,3.1,6.8,6.8s-3.1,6.8-6.8,6.8c-3.8,0-6.8-3.1-6.8-6.8l0,0C460.2,42.2,463.2,39.2,467,39.2
	L467,39.2"/>
<path class="st7" d="M467,68.4c9.6,0,19.8,4.8,19.8,6.8v3.6h-39.6v-3.6C447.2,73.2,457.4,68.4,467,68.4"/>
<circle class="st7" cx="467" cy="46" r="13"/>
<path class="st7" d="M467,62.3c-8.7,0-26,4.4-26,13V85h52v-9.8C493,66.6,475.7,62.3,467,62.3z"/>
<text transform="matrix(1 0 0 1 362.62 467.92)" class="st4 st5">L</text>
<text transform="matrix(1 0 0 1 366.74 467.92)" class="st4 st5">o</text>
<text transform="matrix(1 0 0 1 371.68 467.92)" class="st4 st5">r</text>
<text transform="matrix(1 0 0 1 374.54 467.92)" class="st4 st5">em ipsum dolor sit ame</text>
<text transform="matrix(1 0 0 1 462.46 467.92)" class="st4 st5">t</text>
<text transform="matrix(1 0 0 1 465.42 467.92)" class="st4 st5">, </text>
<text transform="matrix(1 0 0 1 469.19 467.92)" class="st4 st5">c</text>
<text transform="matrix(1 0 0 1 473.17 467.92)" class="st4 st5">onse</text>
<text transform="matrix(1 0 0 1 491.17 467.92)" class="st4 st5">c</text>
<text transform="matrix(1 0 0 1 495.32 467.92)" class="st4 st5">t</text>
<text transform="matrix(1 0 0 1 498.25 467.92)" class="st4 st5">etur adipiscing eli</text>
<text transform="matrix(1 0 0 1 564.67 467.92)" class="st4 st5">t</text>
<text transform="matrix(1 0 0 1 567.62 467.92)" class="st4 st5">, </text>
<text transform="matrix(1 0 0 1 378.67 478.72)" class="st4 st5">sed do eiusmod </text>
<text transform="matrix(1 0 0 1 440.22 478.72)" class="st4 st5">t</text>
<text transform="matrix(1 0 0 1 443.15 478.72)" class="st4 st5">empor incididu</text>
<text transform="matrix(1 0 0 1 500.53 478.72)" class="st4 st5">n</text>
<text transform="matrix(1 0 0 1 505.49 478.72)" class="st4 st5">t ut labo</text>
<text transform="matrix(1 0 0 1 536.75 478.72)" class="st4 st5">r</text>
<text transform="matrix(1 0 0 1 539.6 478.72)" class="st4 st5">e e</text>
<text transform="matrix(1 0 0 1 550.52 478.72)" class="st4 st5">t</text>
<text transform="matrix(1 0 0 1 553.48 478.72)" class="st4 st5">.</text>
<path class="st7" d="M467,401.7c3.8,0,6.8,3.1,6.8,6.8c0,3.8-3.1,6.8-6.8,6.8c-3.8,0-6.8-3.1-6.8-6.8l0,0
	C460.2,404.7,463.2,401.7,467,401.7L467,401.7"/>
<path class="st7" d="M467,430.9c9.6,0,19.8,4.8,19.8,6.8v3.6h-39.6v-3.6C447.2,435.7,457.4,430.9,467,430.9"/>
<circle class="st7" cx="467" cy="408.5" r="13"/>
<path class="st7" d="M467,424.8c-8.7,0-26,4.4-26,13v9.8h52v-9.8C493,429.1,475.7,424.8,467,424.8z"/>
<text transform="matrix(1 0 0 1 735.12 105.42)" class="st4 st5">L</text>
<text transform="matrix(1 0 0 1 739.24 105.42)" class="st4 st5">o</text>
<text transform="matrix(1 0 0 1 744.18 105.42)" class="st4 st5">r</text>
<text transform="matrix(1 0 0 1 747.04 105.42)" class="st4 st5">em ipsum dolor sit ame</text>
<text transform="matrix(1 0 0 1 834.96 105.42)" class="st4 st5">t</text>
<text transform="matrix(1 0 0 1 837.92 105.42)" class="st4 st5">, </text>
<text transform="matrix(1 0 0 1 841.69 105.42)" class="st4 st5">c</text>
<text transform="matrix(1 0 0 1 845.67 105.42)" class="st4 st5">onse</text>
<text transform="matrix(1 0 0 1 863.67 105.42)" class="st4 st5">c</text>
<text transform="matrix(1 0 0 1 867.82 105.42)" class="st4 st5">t</text>
<text transform="matrix(1 0 0 1 870.75 105.42)" class="st4 st5">etur adipiscing eli</text>
<text transform="matrix(1 0 0 1 937.17 105.42)" class="st4 st5">t</text>
<text transform="matrix(1 0 0 1 940.12 105.42)" class="st4 st5">, </text>
<text transform="matrix(1 0 0 1 751.17 116.22)" class="st4 st5">sed do eiusmod </text>
<text transform="matrix(1 0 0 1 812.72 116.22)" class="st4 st5">t</text>
<text transform="matrix(1 0 0 1 815.65 116.22)" class="st4 st5">empor incididu</text>
<text transform="matrix(1 0 0 1 873.03 116.22)" class="st4 st5">n</text>
<text transform="matrix(1 0 0 1 877.99 116.22)" class="st4 st5">t ut labo</text>
<text transform="matrix(1 0 0 1 909.25 116.22)" class="st4 st5">r</text>
<text transform="matrix(1 0 0 1 912.1 116.22)" class="st4 st5">e e</text>
<text transform="matrix(1 0 0 1 923.02 116.22)" class="st4 st5">t</text>
<text transform="matrix(1 0 0 1 925.98 116.22)" class="st4 st5">.</text>
<path class="st8" d="M875,36.2c3.8,0,6.8,3.1,6.8,6.8c0,3.8-3.1,6.8-6.8,6.8s-6.8-3.1-6.8-6.8l0,0C868.2,39.2,871.2,36.2,875,36.2
	L875,36.2"/>
<path class="st8" d="M875,65.4c9.7,0,19.8,4.8,19.8,6.8v3.6h-39.7v-3.6C855.2,70.2,865.3,65.4,875,65.4"/>
<circle class="st8" cx="875" cy="43" r="13"/>
<path class="st8" d="M875,59.3c-8.7,0-26,4.4-26,13V82h52v-9.8C901,63.6,883.7,59.3,875,59.3z"/>
<path class="st7" d="M804,36.2c3.8,0,6.8,3.1,6.8,6.8c0,3.8-3.1,6.8-6.8,6.8s-6.8-3.1-6.8-6.8l0,0C797.2,39.2,800.2,36.2,804,36.2
	L804,36.2"/>
<path class="st7" d="M804,65.4c9.7,0,19.8,4.8,19.8,6.8v3.6h-39.7v-3.6C784.2,70.2,794.3,65.4,804,65.4"/>
<circle class="st7" cx="804" cy="43" r="13"/>
<path class="st7" d="M804,59.3c-8.7,0-26,4.4-26,13V82h52v-9.8C830,63.6,812.7,59.3,804,59.3z"/>
<text transform="matrix(1 0 0 1 735.12 469.42)" class="st4 st5">L</text>
<text transform="matrix(1 0 0 1 739.24 469.42)" class="st4 st5">o</text>
<text transform="matrix(1 0 0 1 744.18 469.42)" class="st4 st5">r</text>
<text transform="matrix(1 0 0 1 747.04 469.42)" class="st4 st5">em ipsum dolor sit ame</text>
<text transform="matrix(1 0 0 1 834.96 469.42)" class="st4 st5">t</text>
<text transform="matrix(1 0 0 1 837.92 469.42)" class="st4 st5">, </text>
<text transform="matrix(1 0 0 1 841.69 469.42)" class="st4 st5">c</text>
<text transform="matrix(1 0 0 1 845.67 469.42)" class="st4 st5">onse</text>
<text transform="matrix(1 0 0 1 863.67 469.42)" class="st4 st5">c</text>
<text transform="matrix(1 0 0 1 867.82 469.42)" class="st4 st5">t</text>
<text transform="matrix(1 0 0 1 870.75 469.42)" class="st4 st5">etur adipiscing eli</text>
<text transform="matrix(1 0 0 1 937.17 469.42)" class="st4 st5">t</text>
<text transform="matrix(1 0 0 1 940.12 469.42)" class="st4 st5">, </text>
<text transform="matrix(1 0 0 1 751.17 480.22)" class="st4 st5">sed do eiusmod </text>
<text transform="matrix(1 0 0 1 812.72 480.22)" class="st4 st5">t</text>
<text transform="matrix(1 0 0 1 815.65 480.22)" class="st4 st5">empor incididu</text>
<text transform="matrix(1 0 0 1 873.03 480.22)" class="st4 st5">n</text>
<text transform="matrix(1 0 0 1 877.99 480.22)" class="st4 st5">t ut labo</text>
<text transform="matrix(1 0 0 1 909.25 480.22)" class="st4 st5">r</text>
<text transform="matrix(1 0 0 1 912.1 480.22)" class="st4 st5">e e</text>
<text transform="matrix(1 0 0 1 923.02 480.22)" class="st4 st5">t</text>
<text transform="matrix(1 0 0 1 925.98 480.22)" class="st4 st5">.</text>
<path class="st8" d="M875,400.2c3.8,0,6.8,3.1,6.8,6.8c0,3.8-3.1,6.8-6.8,6.8c-3.8,0-6.8-3.1-6.8-6.8l0,0
	C868.2,403.2,871.2,400.2,875,400.2L875,400.2"/>
<path class="st8" d="M875,429.4c9.7,0,19.8,4.8,19.8,6.8v3.6h-39.7v-3.6C855.2,434.2,865.3,429.4,875,429.4"/>
<circle class="st8" cx="875" cy="407" r="13"/>
<path class="st8" d="M875,423.3c-8.7,0-26,4.4-26,13v9.8h52v-9.8C901,427.6,883.7,423.3,875,423.3z"/>
<path class="st7" d="M804,400.2c3.8,0,6.8,3.1,6.8,6.8c0,3.8-3.1,6.8-6.8,6.8c-3.8,0-6.8-3.1-6.8-6.8l0,0
	C797.2,403.2,800.2,400.2,804,400.2L804,400.2"/>
<path class="st7" d="M804,429.4c9.7,0,19.8,4.8,19.8,6.8v3.6h-39.7v-3.6C784.2,434.2,794.3,429.4,804,429.4"/>
<circle class="st7" cx="804" cy="407" r="13"/>
<path class="st7" d="M804,423.3c-8.7,0-26,4.4-26,13v9.8h52v-9.8C830,427.6,812.7,423.3,804,423.3z"/>
<text transform="matrix(1 0 0 1 1171.23 105.42)" class="st4 st5">L</text>
<text transform="matrix(1 0 0 1 1175.35 105.42)" class="st4 st5">o</text>
<text transform="matrix(1 0 0 1 1180.29 105.42)" class="st4 st5">r</text>
<text transform="matrix(1 0 0 1 1183.15 105.42)" class="st4 st5">em ipsum dolor sit ame</text>
<text transform="matrix(1 0 0 1 1271.0699 105.42)" class="st4 st5">t</text>
<text transform="matrix(1 0 0 1 1274.03 105.42)" class="st4 st5">, </text>
<text transform="matrix(1 0 0 1 1277.7999 105.42)" class="st4 st5">c</text>
<text transform="matrix(1 0 0 1 1281.78 105.42)" class="st4 st5">onse</text>
<text transform="matrix(1 0 0 1 1299.78 105.42)" class="st4 st5">c</text>
<text transform="matrix(1 0 0 1 1303.9299 105.42)" class="st4 st5">t</text>
<text transform="matrix(1 0 0 1 1306.86 105.42)" class="st4 st5">etur adipiscing eli</text>
<text transform="matrix(1 0 0 1 1373.28 105.42)" class="st4 st5">t</text>
<text transform="matrix(1 0 0 1 1376.23 105.42)" class="st4 st5">, </text>
<text transform="matrix(1 0 0 1 1187.28 116.22)" class="st4 st5">sed do eiusmod </text>
<text transform="matrix(1 0 0 1 1248.83 116.22)" class="st4 st5">t</text>
<text transform="matrix(1 0 0 1 1251.76 116.22)" class="st4 st5">empor incididu</text>
<text transform="matrix(1 0 0 1 1309.14 116.22)" class="st4 st5">n</text>
<text transform="matrix(1 0 0 1 1314.1 116.22)" class="st4 st5">t ut labo</text>
<text transform="matrix(1 0 0 1 1345.36 116.22)" class="st4 st5">r</text>
<text transform="matrix(1 0 0 1 1348.21 116.22)" class="st4 st5">e e</text>
<text transform="matrix(1 0 0 1 1359.13 116.22)" class="st4 st5">t</text>
<text transform="matrix(1 0 0 1 1362.09 116.22)" class="st4 st5">.</text>
<text transform="matrix(1 0 0 1 1171.23 469.42)" class="st4 st5">L</text>
<text transform="matrix(1 0 0 1 1175.35 469.42)" class="st4 st5">o</text>
<text transform="matrix(1 0 0 1 1180.29 469.42)" class="st4 st5">r</text>
<text transform="matrix(1 0 0 1 1183.15 469.42)" class="st4 st5">em ipsum dolor sit ame</text>
<text transform="matrix(1 0 0 1 1271.0699 469.42)" class="st4 st5">t</text>
<text transform="matrix(1 0 0 1 1274.03 469.42)" class="st4 st5">, </text>
<text transform="matrix(1 0 0 1 1277.7999 469.42)" class="st4 st5">c</text>
<text transform="matrix(1 0 0 1 1281.78 469.42)" class="st4 st5">onse</text>
<text transform="matrix(1 0 0 1 1299.78 469.42)" class="st4 st5">c</text>
<text transform="matrix(1 0 0 1 1303.9299 469.42)" class="st4 st5">t</text>
<text transform="matrix(1 0 0 1 1306.86 469.42)" class="st4 st5">etur adipiscing eli</text>
<text transform="matrix(1 0 0 1 1373.28 469.42)" class="st4 st5">t</text>
<text transform="matrix(1 0 0 1 1376.23 469.42)" class="st4 st5">, </text>
<text transform="matrix(1 0 0 1 1187.28 480.22)" class="st4 st5">sed do eiusmod </text>
<text transform="matrix(1 0 0 1 1248.83 480.22)" class="st4 st5">t</text>
<text transform="matrix(1 0 0 1 1251.76 480.22)" class="st4 st5">empor incididu</text>
<text transform="matrix(1 0 0 1 1309.14 480.22)" class="st4 st5">n</text>
<text transform="matrix(1 0 0 1 1314.1 480.22)" class="st4 st5">t ut labo</text>
<text transform="matrix(1 0 0 1 1345.36 480.22)" class="st4 st5">r</text>
<text transform="matrix(1 0 0 1 1348.21 480.22)" class="st4 st5">e e</text>
<text transform="matrix(1 0 0 1 1359.13 480.22)" class="st4 st5">t</text>
<text transform="matrix(1 0 0 1 1362.09 480.22)" class="st4 st5">.</text>
<path class="st9" d="M1253.9,39.2v20.3h8.7V39.2H1253.9z M1271.3,39.2v20.3h8.7V39.2H1271.3z M1248.1,73.9h55v-8.7h-55V73.9z
	 M1288.6,39.2v20.3h8.7V39.2H1288.6z M1275.6,13.2l-27.5,14.5v5.8h55v-5.8L1275.6,13.2z"/>
<path d="M1290,411.5l-9.4-9.4l-25,25v9.4h9.4L1290,411.5z M1297.4,404.1c1-1,1-2.6,0-3.5l-5.8-5.9c-1-1-2.6-1-3.5,0l-4.9,4.9
	l9.4,9.4L1297.4,404.1z"/>
<path class="st10" d="M1245.6,394h60v60h-60V394z"/>
<path d="M1245.6,444h60v10h-60V444z"/>
<g class="st1">
	<path class="st11" d="M44.9,435.5c1.9,1,4.8,1.9,7.8,1.9c3.2,0,4.9-1.3,4.9-3.4c0-1.9-1.5-3-5.2-4.4c-5.2-1.8-8.5-4.6-8.5-9.2
		c0-5.3,4.4-9.3,11.7-9.3c3.5,0,6.1,0.7,7.9,1.6l-1.6,5.7c-1.2-0.6-3.4-1.5-6.5-1.5c-3,0-4.5,1.4-4.5,3c0,2,1.7,2.9,5.7,4.4
		c5.5,2,8,4.9,8,9.2c0,5.2-4,9.7-12.5,9.7c-3.5,0-7-1-8.8-1.9L44.9,435.5z"/>
	<path class="st11" d="M87.9,429.6H76.5v7.4h12.7v5.7H69.5v-31h19.1v5.7H76.5v6.4h11.4V429.6z"/>
	<path class="st11" d="M94,411.7h7v25.1h12.3v5.9H94V411.7z"/>
	<path class="st11" d="M136,429.6h-11.4v7.4h12.7v5.7h-19.8v-31h19.1v5.7h-12.1v6.4H136V429.6z"/>
	<path class="st11" d="M142.3,435.5c1.9,1,4.8,1.9,7.8,1.9c3.2,0,4.9-1.3,4.9-3.4c0-1.9-1.5-3-5.2-4.4c-5.2-1.8-8.5-4.6-8.5-9.2
		c0-5.3,4.4-9.3,11.7-9.3c3.5,0,6.1,0.7,7.9,1.6l-1.6,5.7c-1.2-0.6-3.4-1.5-6.5-1.5c-3,0-4.5,1.4-4.5,3c0,2,1.7,2.9,5.7,4.4
		c5.5,2,8,4.9,8,9.2c0,5.2-4,9.7-12.5,9.7c-3.5,0-7-1-8.8-1.9L142.3,435.5z"/>
	<path class="st11" d="M174.1,434.8l-2.2,8h-7.3l9.5-31h9.2l9.6,31h-7.5l-2.4-8H174.1z M182,429.5l-1.9-6.6c-0.6-1.8-1.1-4.1-1.6-6
		h-0.1c-0.5,1.8-0.9,4.2-1.4,6l-1.8,6.6H182z"/>
	<path class="st11" d="M204.1,411.7v31h-7v-31H204.1z"/>
</g>
</svg>
